<svg width="346" height="346" viewBox="0 0 346 346" fill="none" xmlns="http://www.w3.org/2000/svg">
<path d="M147 333L163.75 316.25M199 13L182.75 29.25M163.25 48.75L120.142 91.8578C112.332 99.6683 112.332 112.332 120.142 120.142L225.858 225.858C233.668 233.668 233.668 246.332 225.858 254.142L182.75 297.25" stroke="black" stroke-width="10"/>
<path d="M147 13L225.858 91.8579C233.668 99.6683 233.668 112.332 225.858 120.142L182.75 163.25M199 333L120.142 254.142C112.332 246.332 112.332 233.668 120.142 225.858L163.25 182.75" stroke="white" stroke-width="10"/>
<path d="M201.586 239.586L174.414 212.414C173.633 211.633 172.367 211.633 171.586 212.414L144.414 239.586C143.633 240.367 143.633 241.633 144.414 242.414L171.586 269.586C172.367 270.367 173.633 270.367 174.414 269.586L201.586 242.414C202.367 241.633 202.367 240.367 201.586 239.586Z" fill="#FFFA5E"/>
<path d="M186.586 239.435L174.414 227.263C173.633 226.482 172.367 226.482 171.586 227.263L159.414 239.435C158.633 240.216 158.633 241.482 159.414 242.263L171.586 254.435C172.367 255.216 173.633 255.216 174.414 254.435L186.586 242.263C187.367 241.482 187.367 240.216 186.586 239.435Z" fill="#ED7BFF"/>
<mask id="mask0_15_16" style="mask-type:alpha" maskUnits="userSpaceOnUse" x="143" y="77" width="60" height="60">
<path d="M201.586 105.586L174.414 78.4142C173.633 77.6332 172.367 77.6332 171.586 78.4142L144.414 105.586C143.633 106.367 143.633 107.633 144.414 108.414L171.586 135.586C172.367 136.367 173.633 136.367 174.414 135.586L201.586 108.414C202.367 107.633 202.367 106.367 201.586 105.586Z" fill="white"/>
</mask>
<g mask="url(#mask0_15_16)">
<path d="M173 137V77L143 107L173 137Z" fill="#69FFDC"/>
<path d="M173 137L203 107L173 77L173 137Z" fill="#FF442B"/>
</g>
</svg>
